# xmcd
#
# Track frame offsets:
#	150
#	21144
#	47464
#	69382
#	91274
#	116265
#	131170
#	165252
#	183252
#	207683
#	232258
#	253435
#	271418
#	292843
#	310812
#	335359
#
# Disc length: 4696 seconds
#
# Revision: 0
# Processed by: cddbd v1.5.2PL0 Copyright (c) Steve Scherf et al.
# Submitted via: EZCDAudioConverter 8.0.2.1
#
DISCID=e4125610
DTITLE=Various Artist - 20th Ben Thanh Audio Video's Anniversary [CD1)
DYEAR=2010
DGENRE=
TTITLE0=Mỹ Tâm - Cây đàn sinh viên
TTITLE1=Mỹ Linh - Chị tôi
TTITLE2=Đàm Vĩnh Hưng - Đợi
TTITLE3=Hồng Nhung - Người già và em bé
TTITLE4=Lam Trường - Mưa phi trường
TTITLE5=Đoan Trang - Forget Me not
TTITLE6=Bảo Yến - Huế đêm trăng
TTITLE7=Nhã Phương, Khánh Duy - Rất Huế
TTITLE8=Hương Lan - Dạ cổ hoài lang
TTITLE9=Quang Linh - Xin đừng trách đa đa
TTITLE10=Trần Thu Hà - Anh yêu em
TTITLE11=Đõ Quyên - Hiu hắt đời nhau
TTITLE12=Đan Trường - Ở nơi đó em cười
TTITLE13=Mỹ Lệ - Bóng Biển
TTITLE14=Lý Hải - Nhánh lan rừng
TTITLE15=Minh Thuận - Tinh Tho
EXTD=
EXTT0=
EXTT1=
EXTT2=
EXTT3=
EXTT4=
EXTT5=
EXTT6=
EXTT7=
EXTT8=
EXTT9=
EXTT10=
EXTT11=
EXTT12=
EXTT13=
EXTT14=
EXTT15=
PLAYORDER=
